<svg width="428" height="156" viewBox="0 0 428 156" fill="none" xmlns="http://www.w3.org/2000/svg">
<path d="M138.12 110.5C133.518 110.5 130.015 108.26 127.609 103.781C125.203 99.3011 124 92.7493 124 84.1251C124 75.501 125.233 68.9491 127.699 64.4695C130.195 59.99 133.789 57.7502 138.481 57.7502C141.187 57.7502 143.518 58.5247 145.473 60.0737C147.428 61.6227 148.961 63.8625 150.074 66.793C151.187 69.7236 151.834 73.2612 152.014 77.4058H144.255C143.834 74.3915 143.142 72.1518 142.18 70.6865C141.247 69.2212 140.014 68.4886 138.481 68.4886C136.496 68.4886 134.992 69.7864 133.97 72.382C132.977 74.9358 132.481 78.8501 132.481 84.1251C132.481 89.4001 132.947 93.3354 133.879 95.931C134.812 98.4848 136.225 99.7617 138.12 99.7617C139.533 99.7617 140.691 99.0918 141.593 97.7521C142.496 96.3706 143.172 94.2774 143.623 91.4724H151.382C151.202 95.4914 150.54 98.9244 149.398 101.771C148.285 104.576 146.766 106.732 144.841 108.239C142.947 109.746 140.706 110.5 138.12 110.5Z" fill="#332982"/>
<path d="M156.805 109.244V59.0062H181.165V69.0538H165.285V79.4153H178.909V89.2117H165.285V99.1965H180.713V109.244H156.805Z" fill="#332982"/>
<path d="M186.722 109.244V59.0062H200.3C204.06 59.0062 206.977 60.1993 209.052 62.5856C211.127 64.9719 212.165 68.3421 212.165 72.696C212.165 74.8311 211.744 76.715 210.901 78.3478C210.089 79.9805 208.932 81.2364 207.428 82.1156V83.1204C209.172 83.9577 210.511 85.402 211.443 87.4534C212.405 89.4629 212.886 91.8911 212.886 94.7379C212.886 99.3011 211.804 102.86 209.638 105.413C207.473 107.967 204.421 109.244 200.481 109.244H186.722ZM195.203 98.2545H200.391C201.714 98.2545 202.736 97.8568 203.458 97.0614C204.18 96.2659 204.541 95.1356 204.541 93.6703C204.541 92.1632 204.18 90.991 203.458 90.1537C202.736 89.3164 201.714 88.8977 200.391 88.8977H195.203V98.2545ZM195.203 78.8501H200.21C201.533 78.8501 202.556 78.4734 203.278 77.7198C204 76.9244 204.36 75.8568 204.36 74.5171C204.36 73.0937 204 71.9843 203.278 71.1889C202.556 70.3934 201.533 69.9957 200.21 69.9957H195.203V78.8501Z" fill="#332982"/>
<path d="M218.173 109.244V59.0062H242.533V69.0538H226.654V79.4153H240.278V89.2117H226.654V99.1965H242.082V109.244H218.173Z" fill="#332982"/>
<path d="M247.955 109.244V59.0062H262.12C264.707 59.0062 266.947 59.676 268.842 61.0157C270.736 62.3135 272.21 64.1556 273.263 66.5419C274.315 68.9282 274.841 71.775 274.841 75.0823C274.841 78.2222 274.315 80.9643 273.263 83.3088C272.21 85.6113 270.736 87.3906 268.842 88.6465C266.947 89.9025 264.707 90.5304 262.12 90.5304H256.436V109.244H247.955ZM256.436 79.9177H262.12C263.473 79.9177 264.511 79.499 265.233 78.6618C265.985 77.8245 266.361 76.6104 266.361 75.0195C266.361 73.4705 265.985 72.2774 265.233 71.4401C264.511 70.5609 263.473 70.1213 262.12 70.1213H256.436V79.9177Z" fill="#332982"/>
<path d="M291.541 110.5C286.94 110.5 283.436 108.26 281.031 103.781C278.625 99.3011 277.422 92.7493 277.422 84.1251C277.422 75.501 278.655 68.9491 281.121 64.4695C283.617 59.99 287.211 57.7502 291.902 57.7502C294.609 57.7502 296.94 58.5247 298.894 60.0737C300.849 61.6227 302.383 63.8625 303.496 66.793C304.609 69.7236 305.255 73.2612 305.436 77.4058H297.676C297.255 74.3915 296.564 72.1518 295.601 70.6865C294.669 69.2212 293.436 68.4886 291.902 68.4886C289.917 68.4886 288.414 69.7864 287.391 72.382C286.399 74.9358 285.902 78.8501 285.902 84.1251C285.902 89.4001 286.369 93.3354 287.301 95.931C288.233 98.4848 289.647 99.7617 291.541 99.7617C292.955 99.7617 294.113 99.0918 295.015 97.7521C295.917 96.3706 296.594 94.2774 297.045 91.4724H304.804C304.624 95.4914 303.962 98.9244 302.819 101.771C301.706 104.576 300.188 106.732 298.263 108.239C296.368 109.746 294.128 110.5 291.541 110.5Z" fill="black"/>
<path d="M317.399 109.244V70.2469H307.339V59.0062H335.939V70.2469H325.88V109.244H317.399Z" fill="black"/>
<path d="M340.008 109.244V59.0062H354.173C356.759 59.0062 359 59.676 360.895 61.0157C362.789 62.3135 364.263 64.1556 365.316 66.5419C366.368 68.9282 366.894 71.775 366.894 75.0823C366.894 78.2222 366.368 80.9643 365.316 83.3088C364.263 85.6113 362.789 87.3906 360.895 88.6465C359 89.9025 356.759 90.5304 354.173 90.5304H348.489V109.244H340.008ZM348.489 79.9177H354.173C355.526 79.9177 356.564 79.499 357.286 78.6618C358.038 77.8245 358.414 76.6104 358.414 75.0195C358.414 73.4705 358.038 72.2774 357.286 71.4401C356.564 70.5609 355.526 70.1213 354.173 70.1213H348.489V79.9177Z" fill="black"/>
<path d="M383.008 110.5C378.256 110.5 374.632 108.26 372.136 103.781C369.67 99.3011 368.437 92.7493 368.437 84.1251C368.437 75.501 369.67 68.9491 372.136 64.4695C374.632 59.99 378.256 57.7502 383.008 57.7502C387.76 57.7502 391.368 59.99 393.835 64.4695C396.331 68.9491 397.579 75.501 397.579 84.1251C397.579 92.7493 396.331 99.3011 393.835 103.781C391.368 108.26 387.76 110.5 383.008 110.5ZM383.008 99.7617C385.053 99.7617 386.572 98.4848 387.564 95.931C388.587 93.3354 389.098 89.4001 389.098 84.1251C389.098 78.8501 388.587 74.9358 387.564 72.382C386.572 69.7864 385.053 68.4886 383.008 68.4886C380.963 68.4886 379.429 69.7864 378.407 72.382C377.414 74.9358 376.918 78.8501 376.918 84.1251C376.918 89.4001 377.414 93.3354 378.407 95.931C379.429 98.4848 380.963 99.7617 383.008 99.7617Z" fill="black"/>
<path d="M427.3 110.5H418.8V89.5V84.5L408.9 110.5H400.784V59.0062L409.8 59V79.5V83.5L418.9 59L427.4 59.0062L427.3 110.5ZM411.792 44.5C411.942 45.7559 412.198 46.677 412.558 47.2631C412.919 47.8073 413.431 48.0794 414.092 48.0794C414.784 48.0794 415.31 47.8073 415.671 47.2631C416.032 46.677 416.273 45.7559 416.393 44.5H423.16C422.889 48.1422 422.032 50.8007 420.588 52.4753C419.145 54.108 416.979 54.9244 414.092 54.9244C411.205 54.9244 409.04 54.108 407.596 52.4753C406.153 50.8007 405.296 48.1422 405.025 44.5H411.792Z" fill="black"/>
<circle cx="47.9798" cy="80.8149" r="47.9798" fill="black"/>
<circle cx="52.0202" cy="80.8149" r="47.4798" fill="#8D9E94" stroke="black"/>
<path d="M38.3838 0.511902V46.4715H43.9394C43.9394 46.4715 44.9495 6.5725 43.9394 5.05736C42.9293 3.54222 39.3939 0.511902 39.3939 0.511902H38.3838Z" fill="black"/>
<path d="M63.6364 46.4715V0.511902H62.6263C60.8512 2.28701 59.0909 3.54222 58.0808 5.05736C57.0707 6.5725 58.0808 46.4715 58.0808 46.4715H63.6364Z" fill="black"/>
<path d="M63.6364 152.027V46.4715H58.0808L60.101 153.293C61.284 152.845 63.1603 152.367 63.6364 152.027Z" fill="black"/>
<path d="M38.3838 46.4715V152.027C38.8599 152.367 40.7362 152.845 41.9192 153.293L43.9394 46.4715H38.3838Z" fill="black"/>
<path d="M47.9798 6.06746C47.9798 6.06746 47.9025 2.71933 46.4647 1.522C45.3612 0.603182 42.9293 0.511902 42.9293 0.511902H39.3939C39.3939 0.511902 42.9293 3.54222 43.9394 5.05736C44.9495 6.5725 43.9394 46.4715 43.9394 46.4715H47.9798V25.7644V6.06746Z" fill="white"/>
<path d="M47.9798 46.4715H43.9394L41.9192 153.293C43.6647 153.954 45.0899 154.552 47.9798 154.552V46.4715Z" fill="white"/>
<path d="M54.0404 6.06746V25.7644V46.4715H58.0808C58.0808 46.4715 57.0707 6.5725 58.0808 5.05736C59.0909 3.54222 60.8512 2.28701 62.6263 0.511902H60.101C60.101 0.511902 56.9157 0.315105 55.5556 1.522C54.156 2.76389 54.0404 6.06746 54.0404 6.06746Z" fill="white"/>
<path d="M58.0808 46.4715H54.0404V154.552C56.9303 154.552 58.3555 153.954 60.101 153.293L58.0808 46.4715Z" fill="white"/>
<path d="M54.0404 25.7644H47.9798V46.4715H54.0404V25.7644Z" fill="black"/>
<path d="M38.3838 0.511902V46.4715M38.3838 0.511902C39.1419 0.511902 38.5662 0.511902 39.3939 0.511902M38.3838 0.511902H39.3939M42.9293 0.511902C42.9293 0.511902 36.3636 0.511902 39.3939 0.511902M42.9293 0.511902H39.3939M42.9293 0.511902C42.9293 0.511902 45.3612 0.603182 46.4647 1.522C47.9025 2.71933 47.9798 6.06746 47.9798 6.06746V25.7644M47.9798 25.7644H54.0404M47.9798 25.7644C47.9798 25.7644 47.9798 38.3849 47.9798 46.4715M47.9798 25.7644V46.4715M54.0404 25.7644V6.06746C54.0404 6.06746 54.156 2.76389 55.5556 1.522C56.9157 0.315105 60.101 0.511902 60.101 0.511902H62.6263M54.0404 25.7644V46.4715M54.0404 46.4715C54.0404 46.4715 50.3466 46.4715 47.9798 46.4715M54.0404 46.4715H58.0808M54.0404 46.4715V154.552C56.9303 154.552 58.3555 153.954 60.101 153.293M54.0404 46.4715H47.9798M63.6364 46.4715V152.027C63.1603 152.367 61.284 152.845 60.101 153.293M63.6364 46.4715V0.511902H62.6263M63.6364 46.4715H58.0808M47.9798 46.4715C46.4019 46.4715 43.9394 46.4715 43.9394 46.4715M47.9798 46.4715V154.552C45.0899 154.552 43.6647 153.954 41.9192 153.293M47.9798 46.4715H43.9394M38.3838 46.4715V152.027C38.8599 152.367 40.7362 152.845 41.9192 153.293M38.3838 46.4715H43.9394M39.3939 0.511902C39.3939 0.511902 42.9293 3.54222 43.9394 5.05736C44.9495 6.5725 43.9394 46.4715 43.9394 46.4715M43.9394 46.4715L41.9192 153.293M62.6263 0.511902C60.8512 2.28701 59.0909 3.54222 58.0808 5.05736C57.0707 6.5725 58.0808 46.4715 58.0808 46.4715M58.0808 46.4715L60.101 153.293" stroke="black"/>
<path d="M63.0169 71.3334L70.0876 67.293V51.6364C70.0876 47.596 69.0775 46.5859 65.0371 46.5859H45.3401C41.8048 46.5859 40.7947 47.899 40.7947 51.1314V103.657C40.7947 107.192 42.1078 108.202 45.3401 108.202H65.5421C69.0775 108.202 70.0876 107.192 70.0876 103.657V87.495L63.0169 84.9697V94.5657C63.0169 95.7778 62.0068 96.0809 61.5017 96.0809H49.3805C48.8755 96.0809 47.8654 95.7778 47.8654 94.5657V61.2324C47.8654 60.3906 48.1684 58.7071 49.3805 58.7071H60.9967C62.6128 58.7071 63.0169 60.0539 63.0169 60.7273V71.3334Z" fill="white"/>
<path d="M65.0371 46.5859C69.0775 46.5859 70.0876 47.596 70.0876 51.6364V67.293L63.0169 71.3334V60.7273C63.0169 60.0539 62.6128 58.7071 60.9967 58.7071M65.0371 46.5859C62.6128 46.5859 50.8957 46.5859 45.3401 46.5859M65.0371 46.5859H45.3401M45.3401 46.5859C41.8048 46.5859 40.7947 47.899 40.7947 51.1314M40.7947 51.1314C40.7947 54.3637 40.7947 87.495 40.7947 103.657M40.7947 51.1314V103.657M40.7947 103.657C40.7947 107.192 42.1078 108.202 45.3401 108.202M45.3401 108.202C48.5724 108.202 60.1549 108.202 65.5421 108.202M45.3401 108.202H65.5421M65.5421 108.202C69.0775 108.202 70.0876 107.192 70.0876 103.657M70.0876 103.657C70.0876 100.828 70.0876 91.7038 70.0876 87.495M70.0876 103.657V87.495M70.0876 87.495L63.0169 84.9697M63.0169 84.9697C63.0169 87.6634 63.0169 93.3536 63.0169 94.5657M63.0169 84.9697V94.5657M47.8654 94.5657C47.8654 95.7778 48.8755 96.0809 49.3805 96.0809H61.5017C62.0068 96.0809 63.0169 95.7778 63.0169 94.5657M47.8654 94.5657C47.8654 93.3536 47.8654 71.8384 47.8654 61.2324M47.8654 94.5657V61.2324M47.8654 61.2324C47.8654 60.3906 48.1684 58.7071 49.3805 58.7071M49.3805 58.7071C52.5792 58.7071 59.3805 58.7071 60.9967 58.7071M49.3805 58.7071H60.9967" stroke="black"/>
<path d="M51.5151 78.7947L58.5858 74.7543V59.0977C58.5858 55.0573 57.5757 54.0472 53.5353 54.0472H33.8384C30.303 54.0472 29.2929 55.3604 29.2929 58.5927V111.118C29.2929 114.653 30.606 115.663 33.8384 115.663H54.0404C57.5757 115.663 58.5858 114.653 58.5858 111.118V94.9563L51.5151 92.4311V102.027C51.5151 103.239 50.505 103.542 50 103.542H37.8788C37.3737 103.542 36.3636 103.239 36.3636 102.027V68.6937C36.3636 67.852 36.6667 66.1685 37.8788 66.1685H49.4949C51.1111 66.1685 51.5151 67.5153 51.5151 68.1887V78.7947Z" fill="#332982"/>
<path d="M53.5353 54.0472C57.5757 54.0472 58.5858 55.0573 58.5858 59.0977V74.7543L51.5151 78.7947V68.1887C51.5151 67.5153 51.1111 66.1685 49.4949 66.1685M53.5353 54.0472C51.1111 54.0472 39.3939 54.0472 33.8384 54.0472M53.5353 54.0472H33.8384M33.8384 54.0472C30.303 54.0472 29.2929 55.3604 29.2929 58.5927M29.2929 58.5927C29.2929 61.825 29.2929 94.9563 29.2929 111.118M29.2929 58.5927V111.118M29.2929 111.118C29.2929 114.653 30.606 115.663 33.8384 115.663M33.8384 115.663C37.0707 115.663 48.6532 115.663 54.0404 115.663M33.8384 115.663H54.0404M54.0404 115.663C57.5757 115.663 58.5858 114.653 58.5858 111.118M58.5858 111.118C58.5858 108.29 58.5858 99.1651 58.5858 94.9563M58.5858 111.118V94.9563M58.5858 94.9563L51.5151 92.4311M51.5151 92.4311C51.5151 95.1247 51.5151 100.815 51.5151 102.027M51.5151 92.4311V102.027M36.3636 102.027C36.3636 103.239 37.3737 103.542 37.8788 103.542H50C50.505 103.542 51.5151 103.239 51.5151 102.027M36.3636 102.027C36.3636 100.815 36.3636 79.2998 36.3636 68.6937M36.3636 102.027V68.6937M36.3636 68.6937C36.3636 67.852 36.6667 66.1685 37.8788 66.1685M37.8788 66.1685C41.0774 66.1685 47.8788 66.1685 49.4949 66.1685M37.8788 66.1685H49.4949" stroke="black"/>
</svg>
