<svg width="99" height="154" viewBox="0 0 99 154" fill="none" xmlns="http://www.w3.org/2000/svg">
<circle cx="47.5" cy="80.0118" r="47.5" fill="black"/>
<circle cx="51.5" cy="80.0118" r="47" fill="#8D9E94" stroke="black"/>
<path d="M38 0.511783V46.0118H43.5C43.5 46.0118 44.5 6.51177 43.5 5.01178C42.5 3.51179 39 0.511783 39 0.511783H38Z" fill="black"/>
<path d="M63 46.0118V0.511783H62C60.2426 2.26914 58.5 3.51179 57.5 5.01178C56.5 6.51177 57.5 46.0118 57.5 46.0118H63Z" fill="black"/>
<path d="M63 150.512V46.0118H57.5L59.5 151.765C60.6712 151.321 62.5287 150.848 63 150.512Z" fill="black"/>
<path d="M38 46.0118V150.512C38.4713 150.848 40.3288 151.321 41.5 151.765L43.5 46.0118H38Z" fill="black"/>
<path d="M47.5 6.01178C47.5 6.01178 47.4235 2.69714 46 1.51178C44.9076 0.60215 42.5 0.511783 42.5 0.511783H39C39 0.511783 42.5 3.51179 43.5 5.01178C44.5 6.51177 43.5 46.0118 43.5 46.0118H47.5V25.5118V6.01178Z" fill="white"/>
<path d="M47.5 46.0118H43.5L41.5 151.765C43.2281 152.42 44.639 153.012 47.5 153.012V46.0118Z" fill="white"/>
<path d="M53.5 6.01178V25.5118V46.0118H57.5C57.5 46.0118 56.5 6.51177 57.5 5.01178C58.5 3.51179 60.2426 2.26914 62 0.511783H59.5C59.5 0.511783 56.3466 0.316954 55 1.51178C53.6144 2.74125 53.5 6.01178 53.5 6.01178Z" fill="white"/>
<path d="M57.5 46.0118H53.5V153.012C56.361 153.012 57.7719 152.42 59.5 151.765L57.5 46.0118Z" fill="white"/>
<path d="M53.5 25.5118H47.5V46.0118H53.5V25.5118Z" fill="black"/>
<path d="M38 0.511783V46.0118M38 0.511783C38.7504 0.511783 38.1805 0.511783 39 0.511783M38 0.511783H39M42.5 0.511783C42.5 0.511783 36 0.511783 39 0.511783M42.5 0.511783H39M42.5 0.511783C42.5 0.511783 44.9076 0.60215 46 1.51178C47.4235 2.69714 47.5 6.01178 47.5 6.01178V25.5118M47.5 25.5118H53.5M47.5 25.5118C47.5 25.5118 47.5 38.006 47.5 46.0118M47.5 25.5118V46.0118M53.5 25.5118V6.01178C53.5 6.01178 53.6144 2.74125 55 1.51178C56.3466 0.316954 59.5 0.511783 59.5 0.511783H62M53.5 25.5118V46.0118M53.5 46.0118C53.5 46.0118 49.8431 46.0118 47.5 46.0118M53.5 46.0118H57.5M53.5 46.0118V153.012C56.361 153.012 57.7719 152.42 59.5 151.765M53.5 46.0118H47.5M63 46.0118V150.512C62.5287 150.848 60.6712 151.321 59.5 151.765M63 46.0118V0.511783H62M63 46.0118H57.5M47.5 46.0118C45.9379 46.0118 43.5 46.0118 43.5 46.0118M47.5 46.0118V153.012C44.639 153.012 43.2281 152.42 41.5 151.765M47.5 46.0118H43.5M38 46.0118V150.512C38.4713 150.848 40.3288 151.321 41.5 151.765M38 46.0118H43.5M39 0.511783C39 0.511783 42.5 3.51179 43.5 5.01178C44.5 6.51177 43.5 46.0118 43.5 46.0118M43.5 46.0118L41.5 151.765M62 0.511783C60.2426 2.26914 58.5 3.51179 57.5 5.01178C56.5 6.51177 57.5 46.0118 57.5 46.0118M57.5 46.0118L59.5 151.765" stroke="black"/>
<path d="M62 71.0118L69 67.0118V51.5118C69 47.5118 68 46.5118 64 46.5118H44.5C41 46.5118 40 47.8118 40 51.0118V103.012C40 106.512 41.3 107.512 44.5 107.512H64.5C68 107.512 69 106.512 69 103.012V87.0118L62 84.5118V94.0118C62 95.2118 61 95.5118 60.5 95.5118H48.5C48 95.5118 47 95.2118 47 94.0118V61.0118C47 60.1784 47.3 58.5118 48.5 58.5118H60C61.6 58.5118 62 59.8451 62 60.5118V71.0118Z" fill="white"/>
<path d="M64 46.5118C68 46.5118 69 47.5118 69 51.5118V67.0118L62 71.0118V60.5118C62 59.8451 61.6 58.5118 60 58.5118M64 46.5118C61.6 46.5118 50 46.5118 44.5 46.5118M64 46.5118H44.5M44.5 46.5118C41 46.5118 40 47.8118 40 51.0118M40 51.0118C40 54.2118 40 87.0118 40 103.012M40 51.0118V103.012M40 103.012C40 106.512 41.3 107.512 44.5 107.512M44.5 107.512C47.7 107.512 59.1667 107.512 64.5 107.512M44.5 107.512H64.5M64.5 107.512C68 107.512 69 106.512 69 103.012M69 103.012C69 100.212 69 91.1784 69 87.0118M69 103.012V87.0118M69 87.0118L62 84.5118M62 84.5118C62 87.1784 62 92.8118 62 94.0118M62 84.5118V94.0118M47 94.0118C47 95.2118 48 95.5118 48.5 95.5118H60.5C61 95.5118 62 95.2118 62 94.0118M47 94.0118C47 92.8118 47 71.5118 47 61.0118M47 94.0118V61.0118M47 61.0118C47 60.1784 47.3 58.5118 48.5 58.5118M48.5 58.5118C51.6667 58.5118 58.4 58.5118 60 58.5118M48.5 58.5118H60" stroke="black"/>
<path d="M51 78.0118L58 74.0118V58.5118C58 54.5118 57 53.5118 53 53.5118H33.5C30 53.5118 29 54.8118 29 58.0118V110.012C29 113.512 30.3 114.512 33.5 114.512H53.5C57 114.512 58 113.512 58 110.012V94.0118L51 91.5118V101.012C51 102.212 50 102.512 49.5 102.512H37.5C37 102.512 36 102.212 36 101.012V68.0118C36 67.1784 36.3 65.5118 37.5 65.5118H49C50.6 65.5118 51 66.8451 51 67.5118V78.0118Z" fill="#332982"/>
<path d="M53 53.5118C57 53.5118 58 54.5118 58 58.5118V74.0118L51 78.0118V67.5118C51 66.8451 50.6 65.5118 49 65.5118M53 53.5118C50.6 53.5118 39 53.5118 33.5 53.5118M53 53.5118H33.5M33.5 53.5118C30 53.5118 29 54.8118 29 58.0118M29 58.0118C29 61.2118 29 94.0118 29 110.012M29 58.0118V110.012M29 110.012C29 113.512 30.3 114.512 33.5 114.512M33.5 114.512C36.7 114.512 48.1667 114.512 53.5 114.512M33.5 114.512H53.5M53.5 114.512C57 114.512 58 113.512 58 110.012M58 110.012C58 107.212 58 98.1784 58 94.0118M58 110.012V94.0118M58 94.0118L51 91.5118M51 91.5118C51 94.1784 51 99.8118 51 101.012M51 91.5118V101.012M36 101.012C36 102.212 37 102.512 37.5 102.512H49.5C50 102.512 51 102.212 51 101.012M36 101.012C36 99.8118 36 78.5118 36 68.0118M36 101.012V68.0118M36 68.0118C36 67.1784 36.3 65.5118 37.5 65.5118M37.5 65.5118C40.6667 65.5118 47.4 65.5118 49 65.5118M37.5 65.5118H49" stroke="black"/>
</svg>
